<svg width="142" height="142" viewBox="0 0 142 142" fill="none" xmlns="http://www.w3.org/2000/svg">
<g clip-path="url(#clip0_19_481)">
<rect width="142" height="142" fill="#F0F1F4"/>
<path d="M95.9225 73.4055V84.5917C95.9225 86.5587 95.1442 88.4452 93.759 89.836C92.3737 91.2269 90.4949 92.0083 88.5358 92.0083H70.9926C70.6007 92.0083 70.225 91.8521 69.9479 91.5739C69.6709 91.2957 69.5152 90.9184 69.5152 90.525C69.5152 90.1316 69.6709 89.7543 69.9479 89.4761C70.225 89.1979 70.6007 89.0417 70.9926 89.0417H88.5358C89.7113 89.0417 90.8386 88.5728 91.6697 87.7383C92.5009 86.9038 92.9678 85.7719 92.9678 84.5917V73.4055C92.9678 73.0121 93.1235 72.6348 93.4005 72.3566C93.6776 72.0784 94.0533 71.9221 94.4451 71.9221C94.8369 71.9221 95.2127 72.0784 95.4898 72.3566C95.7668 72.6348 95.9225 73.0121 95.9225 73.4055ZM75.2399 96.2729C74.8481 96.2729 74.4723 96.4292 74.1952 96.7074C73.9182 96.9855 73.7625 97.3628 73.7625 97.7562C73.7625 98.5431 73.4513 99.2976 72.8972 99.854C72.343 100.41 71.5915 100.723 70.8079 100.723H67.1146C66.3309 100.723 65.5794 100.41 65.0253 99.854C64.4712 99.2976 64.1599 98.5431 64.1599 97.7562V90.525C64.1599 90.1316 64.0043 89.7543 63.7272 89.4761C63.4502 89.1979 63.0744 89.0417 62.6826 89.0417H49.3866C48.2112 89.0417 47.0839 88.5728 46.2528 87.7383C45.4216 86.9038 44.9547 85.7719 44.9547 84.5917V33.4167C44.9547 32.2365 45.4216 31.1046 46.2528 30.27C47.0839 29.4355 48.2112 28.9667 49.3866 28.9667H88.5358C89.7113 28.9667 90.8386 29.4355 91.6697 30.27C92.5009 31.1046 92.9678 32.2365 92.9678 33.4167V37.9909C92.9678 38.3843 93.1235 38.7616 93.4005 39.0398C93.6776 39.3179 94.0533 39.4742 94.4451 39.4742C94.8369 39.4742 95.2127 39.3179 95.4898 39.0398C95.7668 38.7616 95.9225 38.3843 95.9225 37.9909V33.4167C95.9225 31.4496 95.1442 29.5632 93.759 28.1723C92.3737 26.7814 90.4949 26 88.5358 26H49.3866C47.4276 26 45.5488 26.7814 44.1635 28.1723C42.7782 29.5632 42 31.4496 42 33.4167V84.5917C42 86.5587 42.7782 88.4452 44.1635 89.836C45.5488 91.2269 47.4276 92.0083 49.3866 92.0083H61.2053V97.7562C61.2053 99.3299 61.8278 100.839 62.9361 101.952C64.0443 103.064 65.5473 103.69 67.1146 103.69H67.4839V113.517C67.4839 113.91 67.6395 114.287 67.9166 114.566C68.1937 114.844 68.5694 115 68.9612 115C69.353 115 69.7288 114.844 70.0059 114.566C70.2829 114.287 70.4386 113.91 70.4386 113.517V103.69H70.8079C72.3751 103.69 73.8782 103.064 74.9864 101.952C76.0946 100.839 76.7172 99.3299 76.7172 97.7562C76.7172 97.3628 76.5616 96.9855 76.2845 96.7074C76.0075 96.4292 75.6317 96.2729 75.2399 96.2729ZM55.6653 36.1979H82.2572C83.0408 36.1979 83.7923 36.5105 84.3464 37.0668C84.9005 37.6232 85.2118 38.3778 85.2118 39.1646C85.2118 39.558 85.3675 39.9353 85.6445 40.2135C85.9216 40.4916 86.2974 40.6479 86.6892 40.6479C87.081 40.6479 87.4567 40.4916 87.7338 40.2135C88.0108 39.9353 88.1665 39.558 88.1665 39.1646C88.1665 37.591 87.5439 36.0818 86.4357 34.9691C85.3275 33.8564 83.8244 33.2313 82.2572 33.2313H55.6653C54.098 33.2313 52.595 33.8564 51.4868 34.9691C50.3786 36.0818 49.756 37.591 49.756 39.1646V59.0042C49.756 60.5778 50.3786 62.087 51.4868 63.1997C52.595 64.3124 54.098 64.9375 55.6653 64.9375H74.9943C75.3861 64.9375 75.7618 64.7812 76.0389 64.503C76.3159 64.2249 76.4716 63.8476 76.4716 63.4542C76.4716 63.0608 76.3159 62.6835 76.0389 62.4053C75.7618 62.1271 75.3861 61.9708 74.9943 61.9708H55.6653C54.8817 61.9708 54.1301 61.6583 53.576 61.1019C53.0219 60.5456 52.7106 59.791 52.7106 59.0042V39.1646C52.7106 38.3778 53.0219 37.6232 53.576 37.0668C54.1301 36.5105 54.8817 36.1979 55.6653 36.1979ZM66.0066 73.8375H71.9159C72.6995 73.8375 73.451 74.1501 74.0051 74.7064C74.5592 75.2628 74.8705 76.0174 74.8705 76.8042C74.8705 77.1976 75.0262 77.5749 75.3032 77.853C75.5803 78.1312 75.9561 78.2875 76.3479 78.2875C76.7397 78.2875 77.1154 78.1312 77.3925 77.853C77.6696 77.5749 77.8252 77.1976 77.8252 76.8042C77.8252 75.2306 77.2026 73.7214 76.0944 72.6087C74.9862 71.496 73.4831 70.8708 71.9159 70.8708H66.0066C64.4393 70.8708 62.9363 71.496 61.8281 72.6087C60.7199 73.7214 60.0973 75.2306 60.0973 76.8042C60.0973 78.3778 60.7199 79.887 61.8281 80.9997C62.9363 82.1124 64.4393 82.7375 66.0066 82.7375H71.9159C72.3077 82.7375 72.6835 82.5812 72.9605 82.303C73.2376 82.0249 73.3932 81.6476 73.3932 81.2542C73.3932 80.8608 73.2376 80.4835 72.9605 80.2053C72.6835 79.9271 72.3077 79.7708 71.9159 79.7708H66.0066C65.223 79.7708 64.4714 79.4583 63.9173 78.9019C63.3632 78.3456 63.0519 77.591 63.0519 76.8042C63.0519 76.0174 63.3632 75.2628 63.9173 74.7064C64.4714 74.1501 65.223 73.8375 66.0066 73.8375ZM89.4592 68.6458C80.9904 68.6458 75.9785 59.0728 80.8131 52.0659L84.8425 46.2364C85.361 45.4871 86.0523 44.875 86.8575 44.4522C87.6627 44.0294 88.5579 43.8086 89.4665 43.8086C90.3752 43.8086 91.2704 44.0294 92.0756 44.4522C92.8808 44.875 93.5721 45.4871 94.0906 46.2364L98.1126 52.0603C102.953 59.0765 97.915 68.6458 89.4592 68.6458ZM95.6769 53.7569L91.6548 47.9329C91.4094 47.5761 91.0814 47.2844 90.6989 47.083C90.3165 46.8815 89.891 46.7762 89.4592 46.7762C89.0273 46.7762 88.6018 46.8815 88.2194 47.083C87.8369 47.2844 87.5089 47.5761 87.2635 47.9329L83.2414 53.7569C82.4524 54.8971 81.9894 56.2324 81.9027 57.6181C81.816 59.0037 82.1089 60.3868 82.7496 61.6171C83.3904 62.8475 84.3544 63.8782 85.5372 64.5974C86.72 65.3166 88.0764 65.6968 89.4592 65.6968C90.8419 65.6968 92.1983 65.3166 93.3811 64.5974C94.5639 63.8782 95.528 62.8475 96.1687 61.6171C96.8094 60.3868 97.1023 59.0037 97.0156 57.6181C96.9289 56.2324 96.4659 54.8971 95.6769 53.7569Z" fill="#192574"/>
</g>
<defs>
<clipPath id="clip0_19_481">
<rect width="142" height="142" fill="white"/>
</clipPath>
</defs>
</svg>
