<svg width="142" height="142" viewBox="0 0 142 142" fill="none" xmlns="http://www.w3.org/2000/svg">
<g clip-path="url(#clip0_19_492)">
<rect width="142" height="142" fill="#F0F1F4"/>
<path d="M109.7 101.333H100.008C100.609 100.432 100.975 99.3938 101.073 98.3129C101.172 97.232 100.999 96.1436 100.571 95.1476C100.142 94.1517 99.4727 93.2801 98.623 92.6131C97.7733 91.9462 96.7708 91.5051 95.7078 91.3306L81.9707 86.2302C81.6951 86.1265 81.4576 85.9402 81.29 85.6965C81.1224 85.4527 81.0329 85.1632 81.0333 84.8667V79.3778C81.4643 80.0831 82.0534 80.6768 82.7533 81.1111L91.9897 86.119C92.5509 86.4794 93.1777 86.7238 93.8334 86.8377C94.4892 86.9517 95.161 86.9331 95.8095 86.7829C96.4581 86.6327 97.0706 86.3539 97.6112 85.9629C98.1518 85.5719 98.6099 85.0763 98.9586 84.5052C99.3074 83.934 99.5399 83.2986 99.6426 82.636C99.7453 81.9734 99.7162 81.2969 99.5569 80.6457C99.3976 79.9946 99.1114 79.3819 98.7148 78.8433C98.3183 78.3047 97.8194 77.851 97.2472 77.5087L90.1307 73.4816C89.7812 73.2141 89.5505 72.8186 89.4886 72.3809L87.9535 61.3222C87.5908 58.8803 86.3982 56.6411 84.5792 54.9869C82.7603 53.3327 80.4278 52.3662 77.9803 52.2526C78.9466 51.3123 79.7149 50.1855 80.2394 48.9395C80.764 47.6934 81.034 46.3536 81.0333 45V42.1111C81.0333 39.4295 79.9763 36.8577 78.0946 34.9615C76.213 33.0653 73.661 32 71 32C68.339 32 65.787 33.0653 63.9054 34.9615C62.0237 36.8577 60.9667 39.4295 60.9667 42.1111V45C60.9668 46.3526 61.2372 47.6913 61.7617 48.9363C62.2862 50.1814 63.0541 51.3072 64.0197 52.2468C61.5713 52.3607 59.2382 53.328 57.4192 54.9833C55.6001 56.6387 54.408 58.8793 54.0465 61.3222L52.2635 72.9789C52.2317 73.2065 52.1538 73.4251 52.0347 73.6211C51.9156 73.8172 51.7578 73.9865 51.5712 74.1186L44.6912 78.995C44.1265 79.347 43.6368 79.8085 43.2505 80.3527C42.8642 80.8969 42.5889 81.5129 42.4406 82.1651C42.2923 82.8173 42.2739 83.4927 42.3865 84.1521C42.4992 84.8115 42.7406 85.4418 43.0968 86.0065C43.453 86.5711 43.9169 87.0589 44.4616 87.4416C45.0062 87.8242 45.6209 88.0941 46.2698 88.2356C46.9188 88.3771 47.5891 88.3873 48.242 88.2657C48.8949 88.1441 49.5174 87.8932 50.0733 87.5273L59.3327 81.0649C60.0017 80.6401 60.5615 80.0621 60.9667 79.3778V84.8782C60.9666 85.1735 60.8767 85.4618 60.7091 85.704C60.5415 85.9463 60.3042 86.1309 60.0293 86.2331L46.3051 91.3277C44.7991 91.5768 43.4295 92.3561 42.4399 93.5269C41.4502 94.6977 40.9046 96.1842 40.9 97.7222C40.8949 99.0087 41.2739 100.267 41.9879 101.333H32.3C31.1596 101.333 30.0658 101.79 29.2594 102.603C28.453 103.415 28 104.517 28 105.667C28 106.816 28.453 107.918 29.2594 108.731C30.0658 109.543 31.1596 110 32.3 110H109.7C110.84 110 111.934 109.543 112.741 108.731C113.547 107.918 114 106.816 114 105.667C114 104.517 113.547 103.415 112.741 102.603C111.934 101.79 110.84 101.333 109.7 101.333ZM98.2333 97.7222C98.2333 98.6799 97.8558 99.5984 97.1838 100.276C96.5118 100.953 95.6004 101.333 94.65 101.333H70.56C69.9486 101.332 69.3601 101.099 68.912 100.68C68.4638 100.261 68.1891 99.6869 68.1426 99.0726C68.096 98.4583 68.2812 97.8489 68.661 97.3662C69.0409 96.8834 69.5875 96.5628 70.1916 96.4684C78.2865 95.1601 86.4558 94.3727 94.65 94.1111C95.6004 94.1111 96.5118 94.4916 97.1838 95.1688C97.8558 95.846 98.2333 96.7645 98.2333 97.7222ZM63.8333 45V42.1111C63.8333 40.1957 64.5884 38.3587 65.9324 37.0042C67.2764 35.6498 69.0993 34.8889 71 34.8889C72.9007 34.8889 74.7236 35.6498 76.0676 37.0042C77.4116 38.3587 78.1667 40.1957 78.1667 42.1111V45C78.1667 46.9155 77.4116 48.7525 76.0676 50.1069C74.7236 51.4613 72.9007 52.2222 71 52.2222C69.0993 52.2222 67.2764 51.4613 65.9324 50.1069C64.5884 48.7525 63.8333 46.9155 63.8333 45ZM61.0197 88.9414C61.8434 88.6326 62.5541 88.0779 63.0569 87.3514C63.5596 86.6248 63.8305 85.7611 63.8333 84.8753V66.6667C63.832 66.3097 63.6995 65.9658 63.4614 65.7015C63.2234 65.4371 62.8966 65.271 62.5441 65.2351C62.1917 65.1992 61.8385 65.2961 61.5528 65.5071C61.267 65.7181 61.069 66.0283 60.9968 66.3778L58.7651 77.2501C58.6984 77.5411 58.5742 77.8156 58.3998 78.0571C58.2255 78.2986 58.0045 78.5021 57.7503 78.6556L48.4967 85.1151C48.136 85.3421 47.7167 85.4562 47.2916 85.443C46.8666 85.4298 46.4551 85.2899 46.1089 85.041C45.7628 84.792 45.4977 84.4453 45.3472 84.0445C45.1966 83.6438 45.1673 83.2071 45.2631 82.7896C45.3313 82.5 45.4569 82.2272 45.6323 81.9877C45.8076 81.7482 46.0292 81.5468 46.2836 81.3957L53.2267 76.4773C53.7309 76.1192 54.1574 75.6614 54.4803 75.1316C54.8031 74.6019 55.0154 74.0115 55.1043 73.3963L56.8788 61.7556C57.1544 59.9017 58.0832 58.2098 59.4954 56.9896C60.9075 55.7694 62.7085 55.1026 64.5686 55.1111H77.4314C79.2882 55.1026 81.0863 55.7671 82.4974 56.9834C83.9086 58.1998 84.8388 59.8868 85.1183 61.7368L86.652 72.7824C86.7391 73.4013 86.9508 73.9956 87.2742 74.5289C87.5976 75.0623 88.0258 75.5233 88.5325 75.8837C88.5741 75.9111 88.6142 75.9371 88.6558 75.9617L95.7881 79.9946C96.1489 80.2215 96.4347 80.5512 96.6096 80.942C96.7844 81.3327 96.8402 81.7669 96.7701 82.1897C96.7 82.6125 96.507 83.0048 96.2156 83.317C95.9242 83.6292 95.5475 83.8473 95.133 83.9437C94.8422 84.0086 94.5413 84.0137 94.2484 83.9586C93.9556 83.9035 93.6768 83.7894 93.4288 83.623L84.1938 78.6151C83.7117 78.3116 83.3685 77.8281 83.2392 77.2703L81.0032 66.3778C80.9278 66.0294 80.7288 65.7207 80.4434 65.5098C80.1581 65.2989 79.8062 65.2002 79.4538 65.2323C79.099 65.2683 78.7703 65.4362 78.5317 65.7033C78.2932 65.9703 78.162 66.3174 78.1638 66.6768V84.8667C78.1664 85.7526 78.4371 86.6167 78.9399 87.3435C79.4426 88.0704 80.1535 88.6253 80.9774 88.9342L87.8732 91.4938C81.8532 91.9271 75.3817 92.7793 70.9828 93.4221C66.8491 92.8169 60.2586 91.9416 54.1153 91.4967L61.0197 88.9414ZM44.8144 100.26C44.3185 99.7542 43.9818 99.1119 43.8466 98.4139C43.7114 97.7159 43.7837 96.9932 44.0545 96.3365C44.3254 95.6797 44.7826 95.1182 45.3688 94.7223C45.9551 94.3264 46.6443 94.1138 47.35 94.1111C53.7007 94.2669 60.0368 94.7975 66.3259 95.7C65.7237 96.4973 65.3619 97.4524 65.2837 98.4513C65.2054 99.4502 65.4139 100.451 65.8844 101.333H47.35C46.8775 101.335 46.4096 101.241 45.974 101.056C45.5384 100.872 45.144 100.601 44.8144 100.26ZM109.7 107.111H32.3C31.9199 107.111 31.5553 106.959 31.2865 106.688C31.0177 106.417 30.8667 106.05 30.8667 105.667C30.8667 105.284 31.0177 104.916 31.2865 104.645C31.5553 104.374 31.9199 104.222 32.3 104.222H109.7C110.08 104.222 110.445 104.374 110.714 104.645C110.982 104.916 111.133 105.284 111.133 105.667C111.133 106.05 110.982 106.417 110.714 106.688C110.445 106.959 110.08 107.111 109.7 107.111Z" fill="#192574"/>
</g>
<defs>
<clipPath id="clip0_19_492">
<rect width="142" height="142" fill="white"/>
</clipPath>
</defs>
</svg>
