<svg width="81" height="81" viewBox="0 0 81 81" fill="none" xmlns="http://www.w3.org/2000/svg">
<circle cx="40.1409" cy="40.1409" r="40.1409" transform="rotate(-90 40.1409 40.1409)" fill="#192574"/>
<path fill-rule="evenodd" clip-rule="evenodd" d="M40.3333 44.8669L45.4019 47.4911C45.6019 47.5946 45.8235 47.6493 46.0487 47.6508C46.2739 47.6523 46.4962 47.6005 46.6976 47.4997L50.9719 45.3626C51.2091 45.244 51.4087 45.0617 51.5482 44.8362C51.6878 44.6106 51.7617 44.3507 51.7619 44.0854V40.1369C51.7617 39.8716 51.6878 39.6117 51.5482 39.3861C51.4087 39.1605 51.2091 38.9783 50.9719 38.8597L46.0476 36.3969L41.1047 38.9569C40.8722 39.0773 40.6773 39.2593 40.5413 39.483C40.4052 39.7068 40.3333 39.9636 40.3333 40.2254V44.8669Z" stroke="white" stroke-width="1.5" stroke-linecap="round" stroke-linejoin="round"/>
<path fill-rule="evenodd" clip-rule="evenodd" d="M29.6762 45.2654L33.9733 47.4912C34.1733 47.5946 34.395 47.6493 34.6201 47.6508C34.8453 47.6523 35.0676 47.6005 35.269 47.4997L40.3333 44.9683V40.1369C40.3332 39.8716 40.2592 39.6117 40.1197 39.3861C39.9801 39.1606 39.7806 38.9783 39.5433 38.8597L34.619 36.3969L29.6762 38.9569C29.4437 39.0773 29.2487 39.2593 29.1127 39.4831C28.9766 39.7068 28.9047 39.9636 28.9047 40.2254V43.9969C28.9047 44.2587 28.9766 44.5155 29.1127 44.7392C29.2487 44.963 29.4437 45.145 29.6762 45.2654ZM34.619 36.2954L39.6876 38.9197C39.8876 39.0232 40.1092 39.0779 40.3344 39.0794C40.5596 39.0809 40.7819 39.0291 40.9833 38.9283L46.0476 36.3969V31.5654C46.0474 31.3002 45.9735 31.0403 45.8339 30.8147C45.6944 30.5891 45.4948 30.4069 45.2576 30.2883L40.9833 28.1512C40.7819 28.0504 40.5596 27.9986 40.3344 28.0001C40.1092 28.0016 39.8876 28.0563 39.6876 28.1597L35.3904 30.3854C35.1579 30.5059 34.963 30.6879 34.827 30.9116C34.6909 31.1354 34.619 31.3922 34.619 31.654V36.2954Z" stroke="white" stroke-width="1.5" stroke-linecap="round" stroke-linejoin="round"/>
<path d="M35.1133 30.9297L39.6947 33.2197C39.893 33.3188 40.1116 33.3704 40.3333 33.3704C40.555 33.3704 40.7736 33.3188 40.9719 33.2197L45.5047 30.954M40.8276 39.5012L45.409 41.7912C45.6073 41.8903 45.8259 41.9418 46.0476 41.9418C46.2693 41.9418 46.4879 41.8903 46.6862 41.7912L51.2176 39.5255M29.399 39.5012L33.9804 41.7912C34.1787 41.8903 34.3974 41.9418 34.619 41.9418C34.8407 41.9418 35.0593 41.8903 35.2576 41.7912L39.789 39.5255M40.3333 33.5397V39.254M46.0476 42.1112V47.1112M34.619 42.1112V47.1112" stroke="white" stroke-width="1.5" stroke-linecap="round" stroke-linejoin="round"/>
<path d="M51.2619 21.9505C48.083 18.3143 44.5052 15.0396 40.5945 12.1868C40.4186 12.0653 40.2093 12.0001 39.9948 12.0001C39.7802 12.0001 39.5709 12.0653 39.395 12.1868C35.488 15.0402 31.9137 18.3149 28.7381 21.9505C21.7112 29.9435 18 38.3357 18 46.2223C18 51.9981 20.3179 57.5374 24.4437 61.6215C28.5695 65.7056 34.1652 68.0001 40 68.0001C45.8348 68.0001 51.4306 65.7056 55.5564 61.6215C59.6822 57.5374 62 51.9981 62 46.2223C62 38.3357 58.2888 29.9435 51.2619 21.9505ZM40 65.926C34.7226 65.9205 29.663 63.8428 25.9313 60.1489C22.1997 56.4549 20.1008 51.4464 20.0952 46.2223C20.0952 36.9149 25.6345 28.6446 30.2833 23.3453C33.2109 20.0285 36.4659 17.0095 40 14.3335C43.5346 17.0128 46.7897 20.0352 49.7167 23.3557C54.3655 28.6446 59.9048 36.9149 59.9048 46.2223C59.8992 51.4464 57.8003 56.4549 54.0687 60.1489C50.337 63.8428 45.2774 65.9205 40 65.926Z" fill="white"/>
<path d="M44.7602 57.5666C44.9137 57.7005 45 57.8822 45 58.0716C45 58.261 44.9137 58.4426 44.7602 58.5766L41.0742 61.7909C40.9206 61.9248 40.7123 62.0001 40.4951 62.0001C40.2779 62.0001 40.0696 61.9248 39.9159 61.7909L36.2299 58.5766C36.0807 58.4419 35.9982 58.2614 36 58.0742C36.0019 57.8869 36.088 57.7077 36.2399 57.5753C36.3918 57.4428 36.5972 57.3677 36.812 57.3661C37.0268 57.3645 37.2337 57.4365 37.3882 57.5666L39.6759 59.5002L39.6759 52.7144C39.6759 52.5249 39.7622 52.3432 39.9159 52.2093C40.0695 52.0753 40.2778 52.0001 40.4951 52.0001C40.7123 52.0001 40.9206 52.0753 41.0743 52.2093C41.2279 52.3432 41.3142 52.5249 41.3142 52.7144L41.3142 59.5002L43.602 57.5666C43.7556 57.4327 43.9639 57.3574 44.1811 57.3574C44.3983 57.3574 44.6066 57.4327 44.7602 57.5666Z" fill="white"/>
</svg>
