<svg width="81" height="81" viewBox="0 0 81 81" fill="none" xmlns="http://www.w3.org/2000/svg">
<circle cx="40.1409" cy="40.1409" r="40.1409" transform="rotate(-90 40.1409 40.1409)" fill="#192574"/>
<path d="M26.4881 60.3949L27.3403 61.0145C30.0916 63.0153 33.3387 64.0734 36.7297 64.0734C41.8336 64.0734 46.6708 61.6126 49.669 57.4901L63.4082 38.6006C64.4134 37.2181 64.1069 35.2762 62.725 34.2705L54.2289 28.0906L59.741 20.5122C59.8303 20.3896 59.8672 20.2367 59.8434 20.0873C59.8196 19.9379 59.7375 19.8034 59.6149 19.7142L55.8394 16.9682C55.584 16.7825 55.227 16.8391 55.0413 17.0944L49.5292 24.6728L41.0325 18.4929C40.4993 18.1049 39.869 17.8996 39.2114 17.8996C38.2217 17.8996 37.2838 18.3769 36.7023 19.1762L22.9631 38.0656C20.4517 41.5186 19.4352 45.7428 20.1012 49.9599C20.7671 54.1776 23.0352 57.8835 26.4881 60.3949ZM39.2114 19.0423C39.6262 19.0423 40.0238 19.172 40.3606 19.4166L62.0531 35.1941C62.4757 35.5018 62.7536 35.9553 62.8351 36.4718C62.9167 36.9884 62.7923 37.5056 62.4846 37.9281L48.7454 56.8176C45.9614 60.6455 41.4693 62.9302 36.7297 62.9302C33.5815 62.9302 30.5671 61.9482 28.0122 60.0902L27.16 59.4707C23.954 57.139 21.8479 53.6979 21.2295 49.782C20.6112 45.866 21.5551 41.9441 23.8874 38.7375L37.6266 19.8481C37.9938 19.344 38.5865 19.0423 39.2114 19.0423ZM56.9273 20.6045L54.9479 19.1649L55.6287 18.2287L58.48 20.3027L53.3041 27.4187L50.4528 25.3447L54.2754 20.0885L56.2548 21.5281C56.3565 21.6019 56.4738 21.6376 56.5904 21.6376C56.7672 21.6376 56.9409 21.5561 57.0528 21.4025C57.2391 21.1472 57.1826 20.7902 56.9273 20.6045Z" fill="white"/>
<path d="M31.6163 37.9382L47.1255 49.2183C47.5004 49.4909 47.9432 49.6355 48.4062 49.6355C49.1019 49.6355 49.7613 49.2999 50.1695 48.7381L56.0268 40.6854C56.7338 39.7135 56.5178 38.3483 55.5466 37.6413L40.0374 26.3612C39.6625 26.0886 39.2197 25.944 38.7567 25.944C38.061 25.944 37.4016 26.2796 36.9934 26.8414L31.1361 34.8941C30.7939 35.3649 30.6552 35.941 30.7457 36.5159C30.8367 37.0908 31.1456 37.596 31.6163 37.9382ZM37.9176 27.5133C38.1122 27.2461 38.4258 27.0866 38.7573 27.0866C38.9769 27.0866 39.187 27.1551 39.3655 27.2848L54.8747 38.5649C55.0984 38.728 55.2454 38.9678 55.2889 39.2416C55.3323 39.5147 55.2662 39.7891 55.1032 40.0129L49.2459 48.0662C49.0513 48.3334 48.7377 48.4929 48.4062 48.4929C48.1866 48.4929 47.9765 48.4244 47.798 48.2947L32.2888 37.0146C32.0651 36.8515 31.9181 36.6117 31.8746 36.3379C31.8312 36.0648 31.8972 35.7904 32.0603 35.5666L37.9176 27.5133Z" fill="white"/>
<path d="M28.5663 46.9717L28.9662 47.0169C29.0394 47.0253 29.1132 47.0294 29.1864 47.0294C30.1767 47.0294 31.0081 46.2861 31.1194 45.3012L31.5033 41.9101C31.6241 40.8436 30.854 39.8771 29.7875 39.7563L29.3876 39.7111C29.3144 39.7028 29.24 39.6986 29.1668 39.6986C28.1765 39.6986 27.3451 40.4419 27.2338 41.4269L26.8499 44.8179C26.7297 45.8844 27.4998 46.8509 28.5663 46.9717ZM29.1668 40.8407C29.1971 40.8407 29.2281 40.8425 29.259 40.846L29.659 40.8913C30.1 40.9412 30.4178 41.34 30.3678 41.781L29.9839 45.172C29.9345 45.6094 29.5393 45.9314 29.0942 45.8808L28.6943 45.8356C28.2533 45.7856 27.9355 45.3869 27.9855 44.9459L28.3693 41.5548C28.4157 41.1478 28.7585 40.8407 29.1668 40.8407Z" fill="white"/>
<path d="M34.1718 50.8026C34.245 50.811 34.3194 50.8151 34.3926 50.8151C35.3829 50.8151 36.2143 50.0718 36.3256 49.0869L36.7095 45.6952C36.8303 44.6287 36.0602 43.6622 34.9937 43.5414L34.5938 43.4962C34.5206 43.4879 34.4468 43.4837 34.3736 43.4837C33.3833 43.4837 32.5519 44.227 32.4406 45.212L32.0567 48.603C31.9359 49.6701 32.706 50.636 33.7725 50.7568L34.1718 50.8026ZM34.3724 44.627C34.4027 44.627 34.4337 44.6287 34.4646 44.6323L34.8646 44.6775C35.3056 44.7275 35.6234 45.1263 35.5734 45.5673L35.1895 48.9589C35.1401 49.3963 34.7473 49.7183 34.2998 49.6677L33.8999 49.6225C33.4589 49.5725 33.1411 49.1737 33.1911 48.7328L33.5749 45.3417C33.6207 44.934 33.9635 44.627 34.3724 44.627Z" fill="white"/>
<path d="M43.1303 50.2039C42.3561 49.729 41.4622 49.4778 40.5451 49.4778C39.1293 49.4778 37.7807 50.0742 36.8452 51.1145C36.6071 51.3793 36.3976 51.6679 36.2221 51.9726C36.0507 52.2708 35.7454 52.4487 35.4061 52.4487C35.2948 52.4487 35.1848 52.4291 35.0776 52.3904C34.7396 52.2684 34.3998 52.2065 34.0683 52.2065C33.0917 52.2065 32.2252 52.7171 31.4932 53.7241C30.9688 54.4448 30.7564 55.3274 30.8956 56.2076C31.0349 57.0884 31.508 57.862 32.2293 58.3864C32.762 58.7738 33.4535 58.9874 34.176 58.9874C34.9366 58.9874 35.6722 58.75 36.2477 58.3179C36.4149 58.1923 36.6125 58.1263 36.8196 58.1263C37.0404 58.1263 37.26 58.2042 37.4379 58.3453C37.6188 58.4893 37.8123 58.6226 38.0134 58.7417C38.7704 59.1898 39.6399 59.4272 40.5278 59.4272C41.9913 59.4272 43.3702 58.7976 44.3105 57.7002C45.2645 56.5867 45.6817 55.1215 45.4549 53.6795C45.2276 52.2369 44.3807 50.9704 43.1303 50.2039ZM34.176 57.8448C33.6928 57.8448 33.2405 57.7091 32.9012 57.4621C32.4269 57.1175 32.1157 56.6087 32.024 56.029C31.9324 55.45 32.0722 54.8697 32.4168 54.396C32.9221 53.7015 33.4779 53.3492 34.0683 53.3492C34.2677 53.3492 34.4771 53.3885 34.6902 53.4652C34.9217 53.5491 35.1633 53.5914 35.4067 53.5914C36.1483 53.5914 36.8404 53.1897 37.213 52.5422C37.348 52.3071 37.5105 52.0833 37.695 51.878C38.4139 51.0787 39.453 50.6199 40.5451 50.6199C41.2509 50.6199 41.9383 50.8127 42.5328 51.1775C43.4969 51.7691 44.1504 52.7451 44.3254 53.8562C44.5003 54.9673 44.1778 56.0969 43.4416 56.9563C42.7185 57.8002 41.6556 58.284 40.5266 58.284C39.8434 58.284 39.1751 58.1019 38.5948 57.7585C38.4389 57.6663 38.2884 57.5627 38.1485 57.4514C37.7694 57.1497 37.2975 56.9836 36.819 56.9836C36.3625 56.9836 35.9275 57.1288 35.5615 57.4038C35.183 57.6883 34.6908 57.8448 34.176 57.8448Z" fill="white"/>
<path d="M26.7744 52.9076C27.2475 53.2516 27.8057 53.4331 28.389 53.4331C29.2662 53.4331 30.0976 53.0099 30.6124 52.3017C31.0438 51.7084 31.2188 50.9823 31.1045 50.2575C30.9903 49.5326 30.6005 48.8958 30.0065 48.4637C29.5334 48.1197 28.9752 47.9382 28.3919 47.9382C27.5147 47.9382 26.6833 48.3614 26.1679 49.0696C25.7365 49.6629 25.5615 50.389 25.6758 51.1138C25.7906 51.8387 26.181 52.4755 26.7744 52.9076ZM28.3919 49.0803C28.7323 49.0803 29.0579 49.1862 29.334 49.3874C29.681 49.6397 29.9083 50.0117 29.9756 50.4348C30.0422 50.8585 29.9405 51.2823 29.6881 51.6292C29.387 52.0429 28.9014 52.2904 28.3884 52.2904C28.0479 52.2904 27.7224 52.1845 27.4463 51.9833C27.0999 51.731 26.872 51.359 26.8053 50.9359C26.7387 50.5122 26.8404 50.0884 27.0928 49.7415C27.3933 49.3273 27.8795 49.0803 28.3919 49.0803Z" fill="white"/>
<path d="M45.255 27.8073C45.3079 27.8073 45.3621 27.7996 45.4156 27.7841L46.184 27.5591C46.4869 27.4705 46.6607 27.1533 46.572 26.8503C46.4833 26.5474 46.1661 26.3736 45.8632 26.4623L45.0949 26.6873C44.7919 26.7759 44.6182 27.0931 44.7068 27.3961C44.78 27.6454 45.008 27.8073 45.255 27.8073Z" fill="white"/>
<path d="M47.8723 29.7106C47.9253 29.7106 47.9795 29.7029 48.033 29.6874L48.8013 29.4624C49.1043 29.3737 49.278 29.0565 49.1894 28.7536C49.1007 28.4507 48.7835 28.2775 48.4806 28.3656L47.7123 28.5906C47.4093 28.6792 47.2356 28.9964 47.3242 29.2994C47.3974 29.5487 47.6248 29.7106 47.8723 29.7106Z" fill="white"/>
<path d="M50.4891 31.6144C50.5421 31.6144 50.5963 31.6066 50.6498 31.5912L51.4181 31.3662C51.7211 31.2775 51.8948 30.9603 51.8062 30.6574C51.7175 30.3545 51.4003 30.1807 51.0974 30.2694L50.329 30.4943C50.0261 30.583 49.8523 30.9002 49.941 31.2031C50.0142 31.4525 50.2422 31.6144 50.4891 31.6144Z" fill="white"/>
<path d="M53.1065 33.5177C53.1595 33.5177 53.2136 33.5099 53.2672 33.4944L54.0355 33.2695C54.3384 33.1808 54.5122 32.8636 54.4235 32.5607C54.3349 32.2578 54.0177 32.0846 53.7147 32.1727L52.9464 32.3976C52.6435 32.4863 52.4697 32.8035 52.5584 33.1064C52.6316 33.3558 52.8595 33.5177 53.1065 33.5177Z" fill="white"/>
<path d="M40.0226 38.3418C40.1243 38.4156 40.2416 38.4513 40.3582 38.4513C40.535 38.4513 40.7088 38.3697 40.8206 38.2162L43.7433 34.1973C43.929 33.942 43.8725 33.5849 43.6172 33.3992C43.3618 33.2135 43.0048 33.2701 42.8191 33.5254L39.8964 37.5443C39.7107 37.7984 39.7673 38.1561 40.0226 38.3418Z" fill="white"/>
<path d="M43.3404 40.7544C43.7005 41.0163 44.126 41.1549 44.57 41.1549C45.2377 41.1549 45.8709 40.833 46.2637 40.2932L47.3968 38.7351C48.0753 37.802 47.8688 36.4909 46.9356 35.8118C46.5756 35.55 46.15 35.4113 45.7061 35.4113C45.0383 35.4113 44.4051 35.7333 44.0123 36.2731L42.8792 37.8311C42.2002 38.7649 42.4073 40.076 43.3404 40.7544ZM43.8028 38.5036L44.936 36.9456C45.1139 36.7004 45.402 36.5546 45.7055 36.5546C45.9066 36.5546 46.0995 36.6176 46.2631 36.7367C46.6868 37.045 46.7809 37.6401 46.4726 38.0638L45.3395 39.6219C45.1615 39.8671 44.8735 40.0129 44.57 40.0129C44.3688 40.0129 44.176 39.9498 44.0123 39.8314C43.5886 39.5225 43.4952 38.9273 43.8028 38.5036Z" fill="white"/>
<path d="M47.8884 44.0628C48.2485 44.3246 48.674 44.4633 49.118 44.4633C49.7857 44.4633 50.4189 44.1413 50.8117 43.6015L51.9448 42.0435C52.6233 41.1103 52.4168 39.7992 51.4836 39.1202C51.1235 38.8583 50.698 38.7197 50.2541 38.7197C49.5863 38.7197 48.9531 39.0416 48.5603 39.5814L47.4272 41.1395C46.7481 42.0726 46.9552 43.3837 47.8884 44.0628ZM48.3508 41.8114L49.484 40.2533C49.6619 40.0081 49.9499 39.8623 50.2535 39.8623C50.4546 39.8623 50.6474 39.9254 50.8111 40.0444C51.2348 40.3527 51.3289 40.9478 51.0206 41.3716L49.8875 42.9296C49.7095 43.1748 49.4215 43.3206 49.118 43.3206C48.9168 43.3206 48.724 43.2575 48.5603 43.1385C48.355 42.9891 48.2205 42.7689 48.1806 42.5184C48.1413 42.2678 48.202 42.0167 48.3508 41.8114Z" fill="white"/>
<path d="M22.3773 19.5483C22.2076 19.4002 22.1123 19.1995 22.1123 18.9901C22.1123 18.7808 22.2076 18.5801 22.3773 18.432L26.451 14.8797C26.6207 14.7317 26.8509 14.6486 27.091 14.6486C27.331 14.6486 27.5612 14.7317 27.731 14.8797L31.8046 18.432C31.9695 18.5809 32.0607 18.7803 32.0587 18.9873C32.0566 19.1943 31.9614 19.3923 31.7936 19.5386C31.6257 19.685 31.3987 19.768 31.1613 19.7698C30.924 19.7716 30.6953 19.6921 30.5246 19.5483L27.9962 17.4113L27.9962 24.9107C27.9962 25.1201 27.9008 25.3209 27.7311 25.4689C27.5613 25.617 27.3311 25.7001 27.091 25.7001C26.8509 25.7001 26.6206 25.617 26.4509 25.4689C26.2811 25.3209 26.1857 25.1201 26.1857 24.9107L26.1857 17.4113L23.6574 19.5483C23.4876 19.6962 23.2574 19.7794 23.0174 19.7794C22.7773 19.7794 22.5471 19.6962 22.3773 19.5483Z" fill="white"/>
</svg>
