<svg width="142" height="142" viewBox="0 0 142 142" fill="none" xmlns="http://www.w3.org/2000/svg">
<g clip-path="url(#clip0_19_497)">
<rect width="142" height="142" fill="#F0F1F4"/>
<path d="M62.2277 90.1904C61.0818 86.2099 59.6968 75.9917 60.7388 71.9035C61.1664 70.2285 61.9739 66.0965 60.2559 63.884C59.0862 62.379 57.0798 62.0737 54.4574 63.1273C46.9154 66.1873 46.2579 71.1199 47.0308 74.7005C48.918 84.0689 51.1082 90.951 53.5391 95.1538C54.6965 97.1564 56.6583 98.4491 58.5363 98.4491C59.706 98.4491 60.7504 97.9523 61.4763 97.051C62.2854 96.0428 63.0767 94.0502 62.2469 90.2666C62.2423 90.2396 62.2346 90.2158 62.2277 90.1904ZM59.6176 95.5537C59.3423 95.8959 58.9893 96.0612 58.5371 96.0612C57.6835 96.0612 56.4445 95.4106 55.6048 93.9587C53.3038 89.9797 51.2059 83.3421 49.3679 74.2129C48.495 70.1693 50.3976 67.3485 55.3502 65.339C56.1046 65.0352 56.7498 64.8822 57.2689 64.8822C57.9272 64.8822 58.2041 65.1298 58.3725 65.3475C59.0939 66.2757 59.1162 68.6174 58.4279 71.3137C57.2497 75.9279 58.7432 86.679 59.9244 90.8118C60.5966 93.911 59.9337 95.1607 59.6176 95.5537Z" fill="#192574"/>
<path d="M62.8513 45.8008C62.3945 46.4599 62.1261 47.2605 62.1261 48.1233C62.1261 50.3835 63.9649 52.2223 66.2243 52.2223C68.4853 52.2223 70.324 50.3835 70.324 48.1233C70.324 45.8639 68.4853 44.0244 66.2243 44.0244C65.6929 44.0244 65.1853 44.1297 64.7185 44.3143L61.88 40.7452C61.4709 40.2315 60.7195 40.1461 60.2035 40.556C59.6875 40.9659 59.6029 41.7157 60.0136 42.2325L62.8513 45.8008ZM67.9377 48.1226C67.9377 49.0677 67.1687 49.8367 66.2235 49.8367C65.2791 49.8367 64.5109 49.0677 64.5109 48.1226C64.5109 47.1774 65.2791 46.4099 66.2235 46.4099C67.1687 46.4107 67.9377 47.1782 67.9377 48.1226Z" fill="#192574"/>
<path d="M93.1506 80.3683C92.5254 72.2465 92.7138 64.0655 93.7136 55.9752C93.7912 55.8176 93.8381 55.6415 93.8381 55.4538C93.8381 55.3654 93.8266 55.2792 93.8089 55.1954C93.9566 54.0526 94.1196 52.9091 94.3011 51.7694C94.7402 49.0116 94.1881 46.4761 92.66 44.2336C91.1281 41.9818 88.9663 40.6345 86.4108 40.3361C83.4385 39.9908 80.4184 39.7239 77.4223 39.5317C74.8391 36.1702 70.7817 34 66.2236 34C61.6663 34 57.6081 36.1718 55.0241 39.5332C52.0356 39.7239 49.0156 39.99 46.0371 40.3369C43.4816 40.636 41.3199 41.9834 39.788 44.2343C38.2599 46.4768 37.7069 49.0124 38.1461 51.7701C40.1755 64.5208 40.1755 77.4521 38.1461 90.2012C37.7069 92.9574 38.2591 95.4945 39.7872 97.7401C41.3199 99.9902 43.4824 101.336 46.0371 101.634C52.7078 102.413 59.4999 102.807 66.2267 102.807C70.1072 102.807 74.0301 102.67 77.9037 102.41C80.4823 105.786 84.5466 107.971 89.1116 107.971C96.8851 107.971 103.208 101.645 103.208 93.8741C103.21 87.5042 98.9615 82.1109 93.1506 80.3683ZM78.968 42.0234C81.3621 42.2018 83.7638 42.4302 86.1347 42.707C88.0088 42.9247 89.54 43.8906 90.6882 45.5771C91.8625 47.2997 92.2847 49.2569 91.9455 51.3956C91.794 52.3477 91.6602 53.3044 91.5303 54.2618H78.9434C79.844 52.4053 80.3492 50.322 80.3492 48.1234C80.3492 47.8696 80.3415 47.6158 80.3292 47.3635C80.3223 47.269 80.3131 47.1759 80.3069 47.0813C80.2946 46.9267 80.2839 46.7706 80.2677 46.6168C80.2546 46.4953 80.2377 46.3776 80.2216 46.2577C80.2054 46.1331 80.1893 46.0085 80.1693 45.8855C80.1485 45.7501 80.1224 45.6148 80.097 45.4802C80.0778 45.3764 80.0578 45.2756 80.0362 45.1741C80.0047 45.0257 79.9709 44.8765 79.934 44.7311C79.914 44.6473 79.8909 44.5643 79.8694 44.482C79.8271 44.3212 79.7825 44.162 79.7332 44.0029C79.714 43.9413 79.6948 43.8813 79.6756 43.8198C79.6202 43.6437 79.5617 43.4684 79.4971 43.2953C79.4871 43.2684 79.4779 43.243 79.4687 43.2154C79.3172 42.8101 79.1549 42.4125 78.968 42.0234ZM66.2243 36.3863C70.2603 36.3863 73.8247 38.4335 75.9388 41.5427C75.9557 41.5696 75.9727 41.595 75.9896 41.6212C76.1688 41.8919 76.3364 42.1679 76.4941 42.4517C76.5248 42.5071 76.5548 42.5617 76.584 42.6155C76.734 42.8978 76.874 43.1877 77.0016 43.4838C77.0178 43.5199 77.0355 43.5545 77.0501 43.5907C77.3277 44.2513 77.543 44.9426 77.6976 45.6578C77.7161 45.7478 77.7322 45.8378 77.7491 45.9285C77.7999 46.1961 77.8399 46.4645 77.8729 46.7383C77.8852 46.8391 77.8983 46.9383 77.9083 47.039C77.9406 47.3982 77.9629 47.7604 77.9629 48.1249C77.9629 54.5971 72.6966 59.8635 66.2236 59.8635C59.7514 59.8635 54.4865 54.5971 54.4865 48.1249C54.4865 47.7581 54.5081 47.3966 54.5404 47.0375C54.5504 46.9383 54.5634 46.8406 54.575 46.7429C54.6073 46.4653 54.6488 46.1915 54.7011 45.9216C54.7173 45.8362 54.7326 45.7486 54.7503 45.6647C54.9041 44.9449 55.1202 44.2497 55.4009 43.586C55.4132 43.5576 55.4263 43.5291 55.4401 43.4991C55.5701 43.1984 55.7124 42.9031 55.8662 42.6147C55.8954 42.5625 55.9246 42.5094 55.9531 42.4556C56.1084 42.1764 56.2738 41.9026 56.4507 41.6373C56.4722 41.6042 56.4937 41.5727 56.5153 41.5396C58.6293 38.4304 62.1931 36.3863 66.2243 36.3863ZM41.7613 45.5771C42.9087 43.8906 44.4406 42.9247 46.3155 42.707C48.6895 42.4309 51.0912 42.2025 53.4822 42.0249C53.2899 42.4233 53.1223 42.8316 52.97 43.2446C52.9646 43.2584 52.96 43.27 52.9546 43.2823C52.8877 43.4668 52.8262 43.6529 52.767 43.8414C52.7508 43.8906 52.7354 43.939 52.7193 43.9882C52.6685 44.1551 52.6193 44.3251 52.5747 44.4943C52.5563 44.5681 52.537 44.6412 52.5194 44.7134C52.4801 44.8696 52.444 45.0241 52.4109 45.1803C52.3909 45.2748 52.3732 45.3694 52.3555 45.464C52.3279 45.6055 52.3025 45.7463 52.2786 45.8893C52.2594 46.0077 52.2448 46.1269 52.2294 46.2454C52.2125 46.37 52.1948 46.493 52.1817 46.6176C52.1656 46.7675 52.1548 46.9198 52.1441 47.0729C52.1364 47.169 52.1264 47.2651 52.121 47.3628C52.1071 47.615 52.101 47.8688 52.101 48.1226C52.101 50.3213 52.6055 52.4046 53.506 54.261H40.9223C40.7931 53.3044 40.6562 52.3492 40.5039 51.3948C40.164 49.2569 40.587 47.2997 41.7613 45.5771ZM76.4687 100.116C66.4235 100.713 56.2653 100.423 46.3155 99.2643C44.4406 99.0466 42.9087 98.0807 41.7605 96.3958C40.587 94.6716 40.164 92.7129 40.5039 90.5772C42.2942 79.3255 42.5326 67.9376 41.223 56.6481H54.9111C54.9303 56.6481 54.9487 56.6435 54.968 56.642C57.5488 60.0457 61.6332 62.249 66.2243 62.249C70.8163 62.249 74.9014 60.0457 77.483 56.642C77.5023 56.6435 77.5207 56.6481 77.5399 56.6481H91.2373C90.3452 64.3539 90.1598 72.1357 90.7112 79.8676C90.6897 79.8646 90.6666 79.8646 90.6443 79.8615C90.4628 79.8423 90.2806 79.8269 90.0975 79.8146C90.026 79.81 89.953 79.8023 89.8814 79.7984C89.6269 79.7846 89.3708 79.7777 89.1132 79.7777C87.3398 79.7777 85.6441 80.1099 84.0814 80.709C84.5405 78.8356 84.9881 76.8369 85.4133 74.7174C86.1908 71.1199 85.5341 66.1873 77.9875 63.1249C75.6981 62.2075 73.907 62.2944 72.6643 63.3833C70.3548 65.4082 71.2277 70.0163 71.7091 71.9043C72.7527 75.994 71.3684 86.2122 70.221 90.1927C70.2133 90.2166 70.2072 90.2419 70.2018 90.2681C69.0998 95.2953 70.8078 97.2056 71.9237 97.8969C72.5166 98.2653 73.1972 98.4437 73.9055 98.4437C74.4807 98.4437 75.0752 98.3222 75.6589 98.0892C75.672 98.1253 75.6843 98.1615 75.6958 98.1976C75.9073 98.8521 76.1626 99.495 76.4687 100.116ZM75.016 93.8749C75.016 94.1333 75.0244 94.3901 75.0375 94.6454C75.0421 94.737 75.0521 94.8269 75.0575 94.9185C75.0706 95.0807 75.0821 95.243 75.099 95.4037C75.1106 95.5029 75.1236 95.6006 75.1375 95.6998C74.413 96.1035 73.684 96.1804 73.1795 95.8682C72.432 95.4037 71.8683 93.8341 72.5235 90.8141C73.7048 86.6821 75.199 75.9302 74.0201 71.3136C73.2779 68.4075 73.3641 65.9412 74.2346 65.1775C74.8729 64.6184 76.1434 64.9568 77.0931 65.3367C82.0503 67.3493 83.9537 70.1701 83.077 74.2298C82.4933 77.1276 81.8765 79.7915 81.2406 82.1832C77.4892 84.718 75.016 89.0138 75.016 93.8749ZM89.1124 105.584C84.6951 105.584 80.8437 103.124 78.8496 99.5042C78.8258 99.4604 78.8019 99.4173 78.7789 99.3719C78.6304 99.0928 78.4912 98.8059 78.3651 98.5145C78.3451 98.4676 78.3236 98.4245 78.3044 98.3776C78.0298 97.7185 77.8137 97.0302 77.663 96.3166C77.6445 96.2358 77.6315 96.1512 77.6153 96.0705C77.563 95.7982 77.5215 95.5252 77.4884 95.2491C77.4777 95.1499 77.4646 95.0523 77.4561 94.9531C77.4231 94.597 77.4015 94.2379 77.4015 93.8749C77.4015 87.4165 82.654 82.1624 89.1124 82.1624C89.4877 82.1624 89.8568 82.1847 90.2229 82.2194C90.2652 82.2224 90.3075 82.2255 90.3506 82.2301C90.702 82.2678 91.0496 82.3216 91.3918 82.3893C91.4395 82.3985 91.4864 82.4085 91.5341 82.4178C96.8335 83.5367 100.823 88.2471 100.823 93.8749C100.823 100.332 95.5708 105.584 89.1124 105.584Z" fill="#192574"/>
<path d="M94.7064 87.8548C94.1327 87.5303 93.4052 87.7364 93.083 88.3101L88.3404 96.7541L85.0227 92.7451C84.6021 92.236 83.85 92.1653 83.3424 92.5859C82.8348 93.0066 82.7633 93.7587 83.1847 94.2655L87.6106 99.6142C87.8382 99.8887 88.175 100.047 88.5295 100.047C88.5649 100.047 88.6011 100.046 88.6364 100.043C89.0287 100.006 89.377 99.781 89.5701 99.4388L95.1633 89.479C95.4863 88.9045 95.2817 88.177 94.7064 87.8548Z" fill="#192574"/>
</g>
<defs>
<clipPath id="clip0_19_497">
<rect width="142" height="142" fill="white"/>
</clipPath>
</defs>
</svg>
