<svg width="142" height="142" viewBox="0 0 142 142" fill="none" xmlns="http://www.w3.org/2000/svg">
<g clip-path="url(#clip0_16_52)">
<rect width="142" height="142" fill="white"/>
<path d="M114.232 65.9512C110.747 64.0254 106.295 65.2396 104.32 68.8013C104.016 69.3492 103.791 69.9198 103.642 70.4999H97.8898C97.7173 69.0851 97.1295 67.7525 96.2142 66.6712L101.732 58.1813C103.835 58.8747 106.001 58.5587 107.762 57.5055C107.763 57.5049 107.763 57.5045 107.764 57.5041C111.21 55.4347 112.328 50.9542 110.256 47.5163C109.253 45.8508 107.659 44.6747 105.769 44.2047C101.865 43.2332 97.9169 45.5947 96.9321 49.4881C96.3179 51.9158 96.9886 54.4169 98.6616 56.2166L93.2359 64.5649C91.8096 64.024 90.2206 63.938 88.6963 64.3604L86.1821 60.0149C88.5313 57.7093 89.0911 54.0123 87.3206 51.0753C85.2456 47.631 80.7672 46.5148 77.3139 48.587C75.6645 49.5735 74.4882 51.1813 74.0111 53.0062H69.0529C68.8778 52.3308 68.6086 51.68 68.2447 51.0763C67.9401 50.5713 67.5746 50.1065 67.1608 49.6915L71.1671 42.9376C74.3894 43.7971 76.7288 42.1798 76.8098 42.1519C80.2559 40.0825 81.3736 35.602 79.3015 32.1641C78.2982 30.4988 76.7046 29.3226 74.8144 28.8525C70.913 27.882 66.9665 30.2382 65.9789 34.1309C65.3056 36.7848 66.1888 39.4239 67.9877 41.1524L64.0225 47.8369C63.0108 47.5432 61.9496 47.4719 60.9082 47.6294C60.1985 46.658 53.478 37.4605 53.3147 37.2371C55.4728 34.9223 55.9419 31.3629 54.2343 28.527C52.1634 25.0885 47.6728 23.9712 44.2247 26.0373C44.2241 26.0377 44.2236 26.0381 44.2232 26.0383C40.7771 28.1079 39.6592 32.5884 41.7313 36.0261C43.5144 38.986 47.0689 40.229 50.2334 39.197C50.8657 40.0621 56.7946 48.1762 57.4779 49.1118C56.3182 50.0242 55.4685 51.2623 55.032 52.6578L45.317 52.3868C45.1451 51.6556 44.8636 50.9509 44.4706 50.2999C42.394 46.8531 37.9164 45.7402 34.4629 47.8123C31.017 49.8764 29.8972 54.3559 31.9681 57.7998C33.3357 60.0678 35.7556 61.3252 38.2339 61.3252C41.4744 61.3252 44.3616 59.1682 45.242 56.0252L54.8533 56.2934C55.1438 57.6998 55.8256 58.9617 56.8408 59.9744L54.3042 64.3598C49.6369 63.0659 45.0576 66.5922 45.0576 71.3712C45.0576 76.1512 49.6377 79.6757 54.3042 78.3826L56.8163 82.7261C55.7842 83.7381 55.0978 85.0182 54.8021 86.3855C52.2261 87.2242 40.7524 90.9613 38.1797 91.7989C36.2601 89.1693 32.6646 88.0221 29.4249 89.4045C25.7297 90.982 24.0073 95.2674 25.5856 98.9572C25.586 98.9581 25.5866 98.9593 25.587 98.9603C27.1672 102.636 31.4578 104.368 35.1643 102.787C38.2127 101.484 39.92 98.3224 39.5285 95.188C41.165 94.6549 53.532 90.6273 54.9869 90.1535C55.4491 91.5828 56.3138 92.773 57.4235 93.6412L53.5314 103.455C49.3583 103.292 45.95 106.61 45.9432 110.717C45.9399 112.668 46.7027 114.502 48.0912 115.883C50.94 118.714 55.5681 118.704 58.4072 115.862C58.4078 115.861 58.4084 115.861 58.4088 115.86C61.7075 112.549 61.0809 106.983 57.0353 104.511L60.7673 95.1012C62.2728 95.3428 63.7586 95.1041 65.0656 94.4813C69.7625 100.909 72.0734 104.072 73.1895 105.6C71.0326 107.914 70.5634 111.473 72.2697 114.311C74.3354 117.739 78.8223 118.873 82.2797 116.799C82.28 116.799 82.2804 116.799 82.2808 116.799C85.7269 114.729 86.8446 110.249 84.7727 106.811C82.9606 103.803 79.3751 102.626 76.2698 103.639C75.1952 102.167 72.8548 98.9641 67.8665 92.1374C68.3838 91.4123 68.7634 90.5986 68.9865 89.7362H74.0109C74.6711 92.2786 76.6481 94.3174 79.3083 94.9789C83.2121 95.9492 87.1738 93.5852 88.1493 89.6767C88.7967 87.0822 87.966 84.4743 86.1829 82.7257L88.6961 78.3821C90.3637 78.8445 92.0931 78.6969 93.625 78.0147L102.648 89.9672C100.719 92.2257 100.258 95.6165 101.953 98.4329C104.019 101.861 108.506 102.994 111.963 100.922C111.963 100.921 111.964 100.921 111.964 100.921C115.41 98.8514 116.528 94.3709 114.456 90.9332C112.603 87.858 108.854 86.6544 105.633 87.8731L96.4777 75.7451C96.8526 75.2491 97.1631 74.7103 97.3983 74.1387H103.648C104.133 76.0082 105.353 77.6846 107.175 78.6911C107.176 78.6915 107.177 78.6921 107.178 78.6922C110.683 80.6214 115.135 79.3667 117.088 75.8395C119.037 72.3217 117.761 67.8947 114.232 65.9512ZM44.857 34.1508C43.821 32.4323 44.3799 30.1925 46.1026 29.1571C47.8277 28.1244 50.0728 28.6826 51.1082 30.4017C52.0966 32.0432 51.6713 34.2824 49.8427 35.4052C48.1176 36.4274 45.8914 35.8672 44.857 34.1508ZM33.7293 99.4413C31.8815 100.23 29.7331 99.371 28.9393 97.5273C28.1511 95.682 29.0121 93.5393 30.8595 92.7508C32.6965 91.9669 34.8464 92.8008 35.647 94.6704L35.662 94.704C36.4251 96.5357 35.5595 98.659 33.7293 99.4413ZM74.013 86.0974H68.9857C67.9412 82.078 63.8145 79.859 59.976 80.9089L57.4612 76.5606C60.3814 73.6933 60.3651 69.0324 57.4618 66.1818L59.9847 61.8201C63.9507 62.9543 68.016 60.5987 69.051 56.6456H74.0092C75.0471 60.6396 79.1481 62.8942 83.0222 61.8329L85.5397 66.1837C82.6247 69.0483 82.63 73.7005 85.5395 76.5594L83.0226 80.9093C79.0971 79.8243 75.0509 82.1338 74.013 86.0974ZM60.1156 51.7075C61.8358 50.6756 64.0751 51.2216 65.1194 52.9523C66.1373 54.6411 65.6371 56.8857 63.872 57.9443C62.1564 58.9733 59.9144 58.4347 58.8684 56.7C57.8157 54.9513 58.4173 52.7262 60.1156 51.7075ZM100.468 50.3787C100.893 48.7003 102.399 47.6263 103.999 47.6263C105.244 47.6263 106.447 48.2568 107.13 49.3916C108.166 51.1096 107.608 53.3487 105.886 54.3845C104.124 55.4391 101.899 54.8381 100.88 53.1414C100.375 52.3039 100.229 51.3227 100.468 50.3787ZM81.9511 51.295C82.8962 51.5298 83.6929 52.1179 84.1947 52.9508C85.2308 54.6695 84.6714 56.9101 82.9529 57.942L82.8915 57.9782C81.1792 58.9607 78.9604 58.3884 77.9442 56.7014C77.6011 56.1302 77.4203 55.4831 77.4217 54.8298C77.4217 54.829 77.4217 54.8286 77.4217 54.8278C77.424 52.4798 79.6359 50.7192 81.9511 51.295ZM58.801 89.7932C57.7554 88.0564 58.3356 85.7831 60.102 84.7679L60.1022 84.7677C60.6702 84.4408 61.2941 84.2856 61.9116 84.2856C63.9695 84.2856 65.5771 85.9391 65.5734 87.915C65.5719 89.1755 64.9225 90.3661 63.8041 91.0359C62.0953 92.0604 59.8469 91.5268 58.801 89.7932ZM81.647 108.687C82.6832 110.405 82.1237 112.646 80.4002 113.681C78.6767 114.714 76.4319 114.155 75.3962 112.437C74.3688 110.728 74.9173 108.495 76.6191 107.459C76.6246 107.455 76.656 107.436 76.6613 107.432C77.492 106.94 80.6111 106.967 81.647 108.687ZM82.9502 91.0359C82.1156 91.5365 81.1352 91.683 80.1903 91.448C78.5033 91.0287 77.4205 89.5184 77.4234 87.9188C77.4246 86.629 78.0862 85.4625 79.1916 84.7991C80.899 83.7766 83.1513 84.3052 84.1964 86.0435C85.2349 87.7667 84.6791 89.9997 82.9502 91.0359ZM113.895 74.0798C112.924 75.835 110.702 76.4748 108.941 75.5072L108.942 75.5074C107.181 74.5351 106.54 72.3161 107.511 70.5621C107.987 69.7055 108.766 69.0871 109.705 68.8207C111.638 68.2716 113.651 69.3835 114.208 71.3127C114.477 72.2466 114.367 73.2293 113.895 74.0798Z" fill="#192574"/>
</g>
<defs>
<clipPath id="clip0_16_52">
<rect width="142" height="142" fill="white"/>
</clipPath>
</defs>
</svg>
