<svg width="142" height="142" viewBox="0 0 142 142" fill="none" xmlns="http://www.w3.org/2000/svg">
<g clip-path="url(#clip0_19_487)">
<rect width="142" height="142" fill="#F0F1F4"/>
<path d="M60.9227 79.3333C60.9227 80.9041 59.8977 82.1775 58.6332 82.1775C57.3688 82.1775 56.3438 80.9041 56.3438 79.3333C56.3438 77.7624 57.3688 76.489 58.6332 76.489C59.8977 76.489 60.9227 77.7624 60.9227 79.3333ZM118.044 50.2455C117.945 50.9061 117.594 51.4887 117.056 51.8851L114.295 53.9296C113.924 54.2036 113.501 54.3533 113.073 54.3984L99.3815 64.5282C98.945 64.85 98.4304 65.0184 97.8991 65.0184C97.8552 65.0184 97.8107 65.0109 97.7665 65.0086L87.5253 72.5857C87.8776 77.2365 88.4858 82.0432 89.4151 86.9354C90.2132 87.2488 90.8171 87.9584 90.9646 88.8519L94.2468 108.757C94.3815 109.575 93.8278 110.347 93.0105 110.482C92.9274 110.495 92.8454 110.501 92.7644 110.501C92.0437 110.501 91.4079 109.98 91.2858 109.245L91.2456 109.001L89.1818 96.4808H28.0845L26.0204 109.001L25.9802 109.245C25.8449 110.062 25.073 110.605 24.2561 110.482C23.4387 110.347 22.8855 109.575 23.0202 108.757L26.3015 88.8529C26.4486 87.9592 27.0524 87.2488 27.851 86.9352C30.1273 74.9531 30.4603 63.4671 29.924 53.613C29.5355 53.2462 29.2585 52.758 29.1682 52.1923L26.0524 32.7382C25.9211 31.9203 26.4782 31.1508 27.2961 31.0199C28.1115 30.8856 28.8835 31.4452 29.0144 32.2636L29.0523 32.5007L32.0627 51.2977H85.2038L88.2137 32.5007L88.2517 32.2636C88.3825 31.4457 89.1589 30.8856 89.9704 31.0199C90.7888 31.1508 91.3454 31.9198 91.2146 32.7382L88.0993 52.1928C88.0083 52.7587 87.7309 53.2468 87.3421 53.6136C87.2973 54.4372 87.2531 55.2622 87.2208 56.108L89.7891 54.2078C89.926 53.6677 90.2318 53.1673 90.7136 52.8109L104.41 42.6778C104.578 42.2839 104.84 41.9245 105.208 41.6517L107.973 39.6054C109.085 38.787 110.652 39.0204 111.47 40.1293L117.582 48.3881C117.979 48.9252 118.143 49.5848 118.044 50.2455ZM30.9406 86.7592H86.3255C85.5723 82.6603 85.036 78.6223 84.6842 74.6878L84.3659 74.9232C83.9304 75.2445 83.4147 75.4135 82.8835 75.4135C82.8464 75.4135 82.8085 75.4069 82.7712 75.4053L80.7204 76.9222C80.2878 77.2435 79.7722 77.4135 79.2399 77.4135C79.1159 77.4135 78.9909 77.4037 78.8649 77.3851C78.2048 77.2865 77.6218 76.9369 77.2243 76.3998L75.9438 74.669L74.3316 75.8617C75.507 77.6631 76.312 79.7633 76.7106 82.1439C76.8474 82.9613 76.2956 83.7347 75.4792 83.8715C75.3952 83.8851 75.3112 83.892 75.2292 83.892C74.5095 83.892 73.8747 83.3734 73.7517 82.64C73.4332 80.7381 72.8165 79.0755 71.9166 77.6484L69.8542 79.1742C69.5856 79.3724 69.2731 79.4681 68.9626 79.4681C68.5036 79.4681 68.0495 79.2582 67.7556 78.8607C67.2634 78.1947 67.403 77.2553 68.069 76.7621L69.9852 75.3445C68.7247 74.1921 67.1793 73.2821 65.3366 72.6342C64.5554 72.3597 64.1452 71.5033 64.4196 70.7211C64.694 69.9408 65.5485 69.5306 66.3327 69.8041C68.7665 70.6602 70.8067 71.9174 72.4347 73.5322L74.1591 72.2565L72.8786 70.5258C72.4821 69.9887 72.3181 69.3295 72.4167 68.6693C72.5153 68.0082 72.8649 67.4262 73.4011 67.0292L75.4609 65.5055C75.6005 64.973 75.9046 64.4804 76.3806 64.1283L84.1597 58.3727C84.1912 56.9868 84.2409 55.6296 84.3062 54.2977H32.9601C33.4339 63.9646 33.0806 75.1129 30.9406 86.7592ZM75.5876 69.143L79.3386 74.2133L80.2379 73.548L76.487 68.478L75.5876 69.143ZM29.1926 89.7592L28.5791 93.4808H88.6874L88.0739 89.7592H29.1926ZM95.2459 63.142L90.828 57.1713L78.5651 66.2435L82.9831 72.2142L95.2459 63.142ZM110.291 52.7242L105.192 45.8313L92.8991 54.9262L97.9987 61.8187L110.291 52.7242ZM114.872 49.7699L109.356 42.3148L107.395 43.765L112.911 51.2211L114.872 49.7699ZM87.6745 63.2103C87.1814 62.5443 86.2429 62.4056 85.5769 62.8973C84.9108 63.3905 84.7712 64.3295 85.2644 64.9955L86.1374 66.1747C86.4314 66.5722 86.8845 66.7821 87.3435 66.7821C87.654 66.7821 87.9665 66.6864 88.2351 66.4877C88.9011 65.9945 89.0407 65.0555 88.5476 64.3895L87.6745 63.2103ZM89.2468 60.1825C88.5808 60.6747 88.4401 61.6141 88.9323 62.2802L89.8044 63.4598C90.0983 63.8578 90.5524 64.0682 91.0114 64.0682C91.321 64.0682 91.6335 63.9725 91.9021 63.7743C92.5681 63.2821 92.7087 62.3427 92.2165 61.6766L91.3444 60.497C90.8522 59.8305 89.9138 59.6898 89.2468 60.1825ZM84.0065 65.9247C83.5114 65.2582 82.5729 65.118 81.9079 65.6112C81.2419 66.1039 81.1022 67.0433 81.5944 67.7094L82.4675 68.889C82.7624 69.2865 83.2155 69.4965 83.6745 69.4965C83.9851 69.4965 84.2976 69.4008 84.5661 69.2025C85.2321 68.7094 85.3718 67.7699 84.8796 67.1039L84.0065 65.9247Z" fill="#192574"/>
</g>
<defs>
<clipPath id="clip0_19_487">
<rect width="142" height="142" fill="white"/>
</clipPath>
</defs>
</svg>
