<svg width="142" height="142" viewBox="0 0 142 142" fill="none" xmlns="http://www.w3.org/2000/svg">
<g clip-path="url(#clip0_16_93)">
<rect width="142" height="142" fill="white"/>
<path d="M87.8965 64.9404C85.6567 64.9378 83.5094 64.0468 81.9256 62.463C80.3418 60.8793 79.4509 58.7319 79.4483 56.4921C79.4483 52.2397 86.1404 42.4284 86.903 41.3234C87.02 41.171 87.1705 41.0476 87.3427 40.9627C87.515 40.8778 87.7045 40.8336 87.8966 40.8336C88.0887 40.8336 88.2782 40.8778 88.4505 40.9627C88.6227 41.0476 88.7732 41.171 88.8902 41.3234C89.6527 42.4284 96.3448 52.2397 96.3448 56.4921C96.3422 58.7319 95.4513 60.8793 93.8675 62.463C92.2837 64.0468 90.1364 64.9378 87.8965 64.9404ZM87.8965 44.1733C85.2376 48.233 81.8621 54.1585 81.8621 56.4921C81.8621 58.0926 82.4978 59.6274 83.6295 60.7591C84.7612 61.8908 86.2961 62.5266 87.8965 62.5266C89.497 62.5266 91.0319 61.8908 92.1636 60.7591C93.2952 59.6274 93.931 58.0926 93.931 56.4921C93.931 54.1566 90.5567 48.2319 87.8965 44.1733ZM89.1034 58.9059C89.1034 58.5858 88.9763 58.2788 88.7499 58.0525C88.5236 57.8262 88.2166 57.699 87.8965 57.699C87.5765 57.6987 87.2698 57.5714 87.0435 57.3452C86.8172 57.1189 86.69 56.8121 86.6896 56.4921C86.6896 56.172 86.5625 55.865 86.3362 55.6387C86.1098 55.4124 85.8028 55.2852 85.4827 55.2852C85.1627 55.2852 84.8557 55.4124 84.6293 55.6387C84.403 55.865 84.2759 56.172 84.2759 56.4921C84.2769 57.4521 84.6587 58.3724 85.3375 59.0512C86.0163 59.7299 86.9366 60.1117 87.8965 60.1128C88.2166 60.1128 88.5236 59.9856 88.7499 59.7593C88.9763 59.533 89.1034 59.226 89.1034 58.9059ZM99.9655 89.0783C98.3656 89.0764 96.8318 88.44 95.7006 87.3088C94.5693 86.1775 93.9329 84.6437 93.931 83.0438C93.931 80.148 98.1304 73.9214 98.972 72.7027C99.089 72.5503 99.2394 72.4269 99.4117 72.342C99.584 72.2571 99.7735 72.2129 99.9656 72.2129C100.158 72.2129 100.347 72.2571 100.519 72.342C100.692 72.4269 100.842 72.5503 100.959 72.7027C101.801 73.9214 106 80.148 106 83.0438C105.998 84.6437 105.362 86.1775 104.23 87.3088C103.099 88.44 101.565 89.0764 99.9655 89.0783ZM99.9655 75.5702C98.2282 78.2858 96.3448 81.7261 96.3448 83.0438C96.3448 84.0041 96.7263 84.925 97.4053 85.604C98.0843 86.2831 99.0052 86.6645 99.9655 86.6645C100.926 86.6645 101.847 86.2831 102.526 85.604C103.205 84.925 103.586 84.0041 103.586 83.0438C103.586 81.7238 101.703 78.2846 99.9655 75.5702ZM57.7241 105.975C51.9646 105.968 46.4428 103.677 42.3702 99.6046C38.2976 95.532 36.0067 90.0103 36 84.2507C36 64.7666 55.9067 37.6108 56.7542 36.4646C56.8712 36.3202 57.0191 36.2038 57.1869 36.1238C57.3547 36.0439 57.5382 36.0023 57.7241 36.0023C57.91 36.0023 58.0936 36.0439 58.2614 36.1238C58.4292 36.2038 58.577 36.3202 58.6941 36.4646C59.5416 37.6108 79.4483 64.7666 79.4483 84.2507C79.4416 90.0103 77.1507 95.532 73.078 99.6046C69.0054 103.677 63.4837 105.968 57.7241 105.975ZM57.7241 39.2614C53.681 45.0419 38.4138 67.9552 38.4138 84.2507C38.4138 89.3721 40.4483 94.2838 44.0697 97.9052C47.6911 101.527 52.6027 103.561 57.7241 103.561C62.8456 103.561 67.7572 101.527 71.3786 97.9052C75 94.2838 77.0345 89.3721 77.0345 84.2507C77.0345 67.9552 61.7672 45.0419 57.7241 39.2614ZM58.931 96.3197C58.9311 96.1612 58.9 96.0042 58.8394 95.8577C58.7787 95.7112 58.6898 95.5782 58.5778 95.4661C58.4657 95.354 58.3326 95.2651 58.1861 95.2045C58.0396 95.1438 57.8827 95.1127 57.7241 95.1128C54.8443 95.1096 52.0834 93.9642 50.047 91.9278C48.0107 89.8915 46.8653 87.1305 46.8621 84.2507C46.8621 83.9306 46.7349 83.6237 46.5086 83.3973C46.2822 83.171 45.9753 83.0438 45.6552 83.0438C45.3351 83.0438 45.0281 83.171 44.8018 83.3973C44.5754 83.6237 44.4483 83.9306 44.4483 84.2507C44.4522 87.7705 45.8522 91.145 48.3411 93.6338C50.8299 96.1227 54.2044 97.5226 57.7241 97.5266C57.8827 97.5267 58.0396 97.4955 58.1861 97.4349C58.3326 97.3743 58.4657 97.2854 58.5778 97.1733C58.6898 97.0612 58.7787 96.9281 58.8394 96.7817C58.9 96.6352 58.9311 96.4782 58.931 96.3197Z" fill="#192574"/>
<path d="M119.778 17.7249C119.306 17.2607 118.667 17 118.001 17C117.334 17 116.695 17.2607 116.224 17.7249L106.737 27.0707C106.265 27.5357 106 28.1663 106 28.8239C106 29.4814 106.265 30.1121 106.737 30.577C107.209 31.042 107.848 31.3032 108.515 31.3032C109.183 31.3032 109.822 31.042 110.294 30.577L115.486 25.4613V44.5214C115.486 45.1788 115.751 45.8092 116.223 46.274C116.694 46.7389 117.334 47 118.001 47C118.668 47 119.307 46.7389 119.779 46.274C120.251 45.8092 120.516 45.1788 120.516 44.5214V25.4613L125.706 30.577C125.939 30.8073 126.217 30.9899 126.522 31.1145C126.827 31.2391 127.154 31.3032 127.485 31.3032C127.815 31.3032 128.142 31.2391 128.447 31.1145C128.752 30.9899 129.03 30.8073 129.263 30.577C129.497 30.3468 129.682 30.0735 129.809 29.7727C129.935 29.4719 130 29.1495 130 28.8239C130 28.4983 129.935 28.1759 129.809 27.8751C129.682 27.5743 129.497 27.3009 129.263 27.0707L119.778 17.7249Z" fill="#192574"/>
</g>
<defs>
<clipPath id="clip0_16_93">
<rect width="142" height="142" fill="white"/>
</clipPath>
</defs>
</svg>
